<svg xmlns="http://www.w3.org/2000/svg" xmlns:xlink="http://www.w3.org/1999/xlink" width="500" zoomAndPan="magnify" viewBox="0 0 375 374.999991" height="500" preserveAspectRatio="xMidYMid meet" version="1.0"><defs><g/><clipPath id="b6135ca150"><path d="M 112.5 138 L 188 138 L 188 205 L 112.5 205 Z M 112.5 138 " clip-rule="nonzero"/></clipPath><clipPath id="98edc407d7"><path d="M 187 104.039062 L 262.5 104.039062 L 262.5 171 L 187 171 Z M 187 104.039062 " clip-rule="nonzero"/></clipPath><clipPath id="437e27c600"><path d="M 0.878906 0.921875 L 109.121094 0.921875 L 109.121094 77.71875 L 0.878906 77.71875 Z M 0.878906 0.921875 " clip-rule="nonzero"/></clipPath><clipPath id="fa8cc5b486"><rect x="0" width="110" y="0" height="78"/></clipPath><clipPath id="9d7af02d06"><rect x="0" width="110" y="0" height="78"/></clipPath></defs><g clip-path="url(#b6135ca150)"><path fill="#072ac8" d="M 163.007812 185.585938 L 163.007812 194.71875 L 121.660156 175.507812 L 121.660156 168.101562 L 163.007812 148.890625 L 163.007812 158.023438 L 131.738281 171.71875 L 131.738281 171.890625 Z M 187.5625 138.746094 L 118.417969 138.746094 C 115.152344 138.746094 112.507812 141.390625 112.507812 144.65625 L 112.507812 198.953125 C 112.507812 202.214844 115.152344 204.863281 118.417969 204.863281 L 168.371094 204.863281 L 187.5625 138.746094 " fill-opacity="1" fill-rule="nonzero"/></g><g clip-path="url(#98edc407d7)"><path fill="#292929" d="M 253.355469 141.09375 L 212.007812 160.042969 L 212.007812 150.910156 L 243.96875 137.214844 L 243.96875 137.042969 L 212.007812 123.347656 L 212.007812 114.21875 L 253.355469 133.167969 Z M 206.761719 104.070312 L 187.5625 170.191406 L 256.597656 170.191406 C 259.863281 170.191406 262.511719 167.542969 262.511719 164.277344 L 262.511719 109.980469 C 262.511719 106.71875 259.863281 104.070312 256.597656 104.070312 L 206.761719 104.070312 " fill-opacity="1" fill-rule="nonzero"/></g><g transform="matrix(1, 0, 0, 1, 134, 199)"><g clip-path="url(#9d7af02d06)"><g clip-path="url(#437e27c600)"><g transform="matrix(1, 0, 0, 1, 0.000000000000028422, 0)"><g clip-path="url(#fa8cc5b486)"><g fill="#ff00ff" fill-opacity="1"><g transform="translate(4.288196, 61.020574)"><g><path d="M 12.859375 -25.6875 L 25.71875 -25.6875 L 25.71875 -38.53125 L 12.859375 -38.53125 Z M 32.109375 -25.6875 L 32.109375 -19.25 L 12.859375 -19.25 L 12.859375 0 L 0 0 L 0 -44.96875 L 32.109375 -44.96875 L 32.109375 -38.53125 L 38.53125 -38.53125 L 38.53125 -25.6875 Z M 32.109375 -25.6875 "/></g></g></g><g fill="#00ffff" fill-opacity="1"><g transform="translate(1.879643, 61.020574)"><g><path d="M 12.859375 -25.6875 L 25.71875 -25.6875 L 25.71875 -38.53125 L 12.859375 -38.53125 Z M 32.109375 -25.6875 L 32.109375 -19.25 L 12.859375 -19.25 L 12.859375 0 L 0 0 L 0 -44.96875 L 32.109375 -44.96875 L 32.109375 -38.53125 L 38.53125 -38.53125 L 38.53125 -25.6875 Z M 32.109375 -25.6875 "/></g></g></g><g fill="#292929" fill-opacity="1"><g transform="translate(3.083919, 61.020574)"><g><path d="M 12.859375 -25.6875 L 25.71875 -25.6875 L 25.71875 -38.53125 L 12.859375 -38.53125 Z M 32.109375 -25.6875 L 32.109375 -19.25 L 12.859375 -19.25 L 12.859375 0 L 0 0 L 0 -44.96875 L 32.109375 -44.96875 L 32.109375 -38.53125 L 38.53125 -38.53125 L 38.53125 -25.6875 Z M 32.109375 -25.6875 "/></g></g></g><g fill="#ff00ff" fill-opacity="1"><g transform="translate(53.75304, 61.020574)"><g><path d="M 44.96875 -44.96875 L 44.96875 0 L 32.109375 0 L 32.109375 -12.859375 L 25.6875 -12.859375 L 25.6875 -19.25 L 19.25 -19.25 L 19.25 -25.6875 L 12.859375 -25.6875 L 12.859375 0 L 0 0 L 0 -44.96875 L 12.859375 -44.96875 L 12.859375 -38.53125 L 19.25 -38.53125 L 19.25 -32.109375 L 25.6875 -32.109375 L 25.6875 -25.6875 L 32.109375 -25.6875 L 32.109375 -44.96875 Z M 44.96875 -44.96875 "/></g></g></g><g fill="#00ffff" fill-opacity="1"><g transform="translate(51.344487, 61.020574)"><g><path d="M 44.96875 -44.96875 L 44.96875 0 L 32.109375 0 L 32.109375 -12.859375 L 25.6875 -12.859375 L 25.6875 -19.25 L 19.25 -19.25 L 19.25 -25.6875 L 12.859375 -25.6875 L 12.859375 0 L 0 0 L 0 -44.96875 L 12.859375 -44.96875 L 12.859375 -38.53125 L 19.25 -38.53125 L 19.25 -32.109375 L 25.6875 -32.109375 L 25.6875 -25.6875 L 32.109375 -25.6875 L 32.109375 -44.96875 Z M 44.96875 -44.96875 "/></g></g></g><g fill="#072ac8" fill-opacity="1"><g transform="translate(52.548764, 61.020574)"><g><path d="M 44.96875 -44.96875 L 44.96875 0 L 32.109375 0 L 32.109375 -12.859375 L 25.6875 -12.859375 L 25.6875 -19.25 L 19.25 -19.25 L 19.25 -25.6875 L 12.859375 -25.6875 L 12.859375 0 L 0 0 L 0 -44.96875 L 12.859375 -44.96875 L 12.859375 -38.53125 L 19.25 -38.53125 L 19.25 -32.109375 L 25.6875 -32.109375 L 25.6875 -25.6875 L 32.109375 -25.6875 L 32.109375 -44.96875 Z M 44.96875 -44.96875 "/></g></g></g></g></g></g></g></g></svg>